<svg width="149" height="527" viewBox="0 0 149 527" fill="none" xmlns="http://www.w3.org/2000/svg">
<path d="M4.63697 4.63697H143.746V445.531C141.174 460.603 136.106 472.044 125.627 483.416C115.194 494.738 99.2795 506.123 74.6081 520.715C50.5156 506.7 34.8519 495.594 24.3092 484.275C13.7044 472.89 8.12819 461.119 4.63697 445.415V4.63697Z" fill="#6C1A31" stroke="#D37E01" stroke-width="9.27394"/>
<g clip-path="url(#clip0_201_89)">
<path d="M100.956 212.268C100.093 211.769 99.1133 211.501 98.1067 211.501H95.716C95.0869 211.501 94.4668 211.332 93.9545 210.984C93.5321 210.708 93.0288 210.271 92.4985 209.612H98.2415C98.8976 209.612 99.5537 209.781 100.111 210.138C101.037 210.726 102.367 211.795 102.897 213.391L100.956 212.268ZM119.003 226.054C115.039 219.647 111.498 214.986 109.871 212.945C109.314 212.241 108.991 211.385 108.91 210.485C108.739 208.525 107.912 204.755 104.299 202.073C99.2032 198.285 100.327 195.166 100.327 195.166C100.327 195.166 100.641 193.009 100.228 190.933C100.228 190.933 102.313 192.492 102.241 195.897C102.214 197.046 102.457 198.196 103.104 199.149C103.805 200.174 104.919 201.146 106.546 200.878C106.546 200.878 104.677 198.802 106.025 195.977C107.373 193.161 103.85 184.026 98.2325 181.352C98.2325 181.352 101.153 185.586 98.2325 185.951C98.2325 185.951 97.6304 175.48 85.9466 175.185C74.5325 174.9 66.4798 180.631 66.1113 180.898C66.2461 180.622 68.6547 176.308 80.3295 174.294C80.3295 174.294 74.191 163.894 58.0135 171.246C58.0135 171.246 61.6085 171.844 63.406 173.18C63.406 173.18 49.4035 172.663 38.6905 186.397C38.6905 186.397 35.4729 191.156 37.567 197.617L39.8858 195.308C39.8858 195.308 41.6833 197.314 37.4142 200.361C33.1452 203.409 22.2883 211.43 29.2536 222.712C29.2536 222.712 31.9499 217.962 35.3202 219.299C35.3202 219.299 25.5058 228.14 32.1745 237.123C32.1745 237.123 34.8708 240.394 34.1967 244.698C34.1967 244.698 35.3202 243.067 35.3202 240.759L40.4161 251.979V324.388C40.4161 324.388 41.3148 346.81 65.1316 355.873C65.1316 355.873 88.7957 363.003 102.277 347.113C102.277 347.113 107.22 340.875 106.923 325.867C106.618 310.868 107.067 294.087 107.067 294.087C107.067 294.087 112.091 294.827 111.561 299.577C111.561 299.577 114.185 297.349 112.837 291.708C112.837 291.708 115.237 291.708 117.034 294.604C117.034 294.604 120.027 289.926 116.136 285.47C116.136 285.47 118.077 285.247 119.057 287.101C119.057 287.101 119.874 278.714 109.539 279.677C109.539 279.677 109.242 278.563 106.097 278.046C106.097 278.046 109.089 272.842 105.944 269.874C105.944 269.874 104.82 276.709 99.4279 276.709C99.4279 276.709 96.7316 271.585 90.8179 275.15C90.8179 275.15 87.8969 276.629 88.3463 274.33C88.3463 274.33 89.0833 272.779 90.8898 273.51C90.8898 273.51 90.2157 271.139 85.4254 272.619C85.4254 272.619 81.3091 274.401 81.9023 281.834C82.5044 289.257 81.1563 289.632 85.0479 291.191C88.9485 292.751 89.0923 294.604 88.9485 296.315C88.7957 298.018 88.9485 330.323 88.9485 330.323C88.9485 330.323 89.8113 341.837 74.191 339.493C58.5798 337.158 58.2382 320.671 58.2382 320.671L58.0135 233.888C58.0135 233.888 62.3904 226.206 67.4504 227.65C67.4504 227.65 67.1179 234.333 69.922 235.563C69.922 235.563 73.4091 227.65 81.0485 230.323C81.0485 230.323 75.5391 242.024 84.6434 248.824C84.6434 248.824 81.4978 235.902 100.03 241.802C100.03 241.802 103.283 243.031 106.618 251.605L106.923 245.812C106.923 245.812 117.034 246.855 118.158 236.677L113.961 231.927C113.071 230.911 113.089 229.396 114.015 228.407C114.41 227.979 114.949 227.765 115.497 227.765C115.983 227.765 116.477 227.944 116.864 228.291L118.949 230.198C118.454 229.922 112.424 226.527 115.084 230.662C117.852 234.966 119.2 232.07 118.976 237.417C118.976 237.417 124.422 234.824 119.003 226.054Z" fill="#D37E01"/>
</g>
<defs>
<clipPath id="clip0_201_89">
<rect width="94.4255" height="188.851" fill="white" transform="translate(26.9787 168.617)"/>
</clipPath>
</defs>
</svg>
