<svg width="149" height="527" viewBox="0 0 149 527" fill="none" xmlns="http://www.w3.org/2000/svg">
<path d="M4.63697 4.63697H143.746V445.531C141.174 460.603 136.106 472.044 125.627 483.416C115.194 494.738 99.2795 506.123 74.6081 520.715C50.5156 506.7 34.8519 495.594 24.3092 484.275C13.7044 472.89 8.12819 461.119 4.63697 445.415V4.63697Z" fill="#BA7625" stroke="#5E3225" stroke-width="9.27394"/>
<g clip-path="url(#clip0_201_81)">
<path d="M118.176 180.59C117.781 179.975 117.009 179.183 115.842 178.788C115.263 178.577 114.596 178.489 113.886 178.515C113.719 178.524 113.517 178.515 113.368 178.541C113.184 178.577 112.991 178.603 112.798 178.629C112.429 178.709 112.096 178.796 111.736 178.928C111.016 179.183 110.332 179.588 109.674 180.063C109.349 180.309 109.051 180.581 108.744 180.854C108.463 181.162 108.156 181.434 107.902 181.769C106.814 183.035 105.98 184.512 105.296 185.945C104.989 186.675 104.655 187.37 104.41 188.065C104.138 188.742 103.936 189.41 103.743 190.017C103.541 190.632 103.409 191.204 103.251 191.705C103.093 192.206 102.997 192.655 102.909 193.015C102.725 193.754 102.62 194.167 102.62 194.167C102.62 194.167 102.664 193.736 102.742 192.989C102.786 192.611 102.839 192.153 102.936 191.635C103.023 191.116 103.093 190.518 103.269 189.894C103.558 188.627 103.962 187.15 104.585 185.629C104.927 184.881 105.269 184.099 105.717 183.36C106.156 182.613 106.665 181.883 107.235 181.197C107.507 180.854 107.849 180.555 108.147 180.23C108.481 179.94 108.814 179.641 109.174 179.386C109.893 178.867 110.674 178.454 111.49 178.19C111.885 178.067 112.333 177.961 112.719 177.917C112.912 177.9 113.105 177.891 113.298 177.873C113.526 177.847 113.693 177.873 113.894 177.882C114.667 177.9 115.395 178.058 116.018 178.33C116.641 178.594 117.15 178.972 117.527 179.368C117.895 179.764 118.15 180.168 118.325 180.511C118.659 181.197 118.703 181.637 118.703 181.637C118.703 181.637 118.58 181.215 118.176 180.59ZM91.8012 233.816C91.8012 233.816 92.0907 228.76 96.548 228.9C101.014 229.05 97.5043 236.595 91.8012 233.816ZM51.835 228.9C56.2923 228.76 56.5818 233.816 56.5818 233.816C50.8786 236.595 47.369 229.05 51.835 228.9ZM45.4738 193.015C45.386 192.655 45.2895 192.206 45.1316 191.705C44.9737 191.204 44.842 190.632 44.6402 190.017C44.4472 189.41 44.2454 188.742 43.9734 188.065C43.7277 187.37 43.3943 186.675 43.0872 185.945C42.4028 184.512 41.5693 183.035 40.4813 181.769C40.2268 181.434 39.9198 181.162 39.639 180.854C39.3319 180.581 39.0336 180.309 38.7089 180.063C38.0509 179.588 37.3665 179.183 36.647 178.928C36.2873 178.796 35.9539 178.709 35.5853 178.629C35.3923 178.603 35.1993 178.577 35.015 178.541C34.8659 178.515 34.6641 178.524 34.4973 178.515C33.7866 178.489 33.1198 178.577 32.5407 178.788C31.3738 179.183 30.6016 179.975 30.2068 180.59C29.8032 181.215 29.6803 181.637 29.6803 181.637C29.6803 181.637 29.7242 181.197 30.0576 180.511C30.2331 180.168 30.4876 179.764 30.8561 179.368C31.2334 178.972 31.7423 178.594 32.3652 178.33C32.9882 178.058 33.7165 177.9 34.4886 177.882C34.6904 177.873 34.8571 177.847 35.0852 177.873C35.2782 177.891 35.4713 177.9 35.6643 177.917C36.0504 177.961 36.4978 178.067 36.8927 178.19C37.7087 178.454 38.4896 178.867 39.2091 179.386C39.5688 179.641 39.9022 179.94 40.2356 180.23C40.5339 180.555 40.8761 180.854 41.1481 181.197C41.7185 181.883 42.2274 182.613 42.6661 183.36C43.1135 184.099 43.4557 184.881 43.7979 185.629C44.4209 187.15 44.8245 188.627 45.114 189.894C45.2895 190.518 45.3597 191.116 45.4475 191.635C45.544 192.153 45.5966 192.611 45.6405 192.989C45.7195 193.736 45.7633 194.167 45.7633 194.167C45.7633 194.167 45.658 193.754 45.4738 193.015ZM118.676 175.71C117.272 174.699 115.5 174.373 113.78 174.576C98.8029 176.37 98.6011 197.245 98.6011 197.245C96.7673 198.124 94.0649 194.756 94.0649 194.756C93.3366 196.735 95.4951 200.366 95.4951 200.366L85.5101 247.296H62.8729L52.8879 200.366C52.8879 200.366 55.0464 196.735 54.3181 194.756C54.3181 194.756 51.6157 198.124 49.7819 197.245C49.7819 197.245 49.5801 176.37 34.6026 174.576C32.8829 174.373 31.1105 174.699 29.7067 175.71C27.4079 177.39 25.2319 181.259 29.0925 190.069C29.0925 190.069 33.6287 197.544 36.6207 200.472L30.8473 200.542C30.8473 200.542 34.4272 203.62 34.9448 208.896C35.4099 213.767 35.015 323.331 34.9536 340.232C34.9448 341.542 34.3219 342.756 33.2953 343.565C31.0754 345.306 27.7851 348.717 31.3562 351.566C31.3562 351.566 30.3384 349.447 32.1634 349.447H48.9834C48.9834 349.447 53.8794 348.788 53.8092 341.753C53.7302 334.719 53.8092 265.832 53.8092 265.832H65.7245V265.41C65.7245 264.091 66.7949 263.01 68.1198 263.01H80.2632C81.5881 263.01 82.6585 264.091 82.6585 265.41V265.832H94.5738C94.5738 265.832 94.6528 334.719 94.5738 341.753C94.5036 348.788 99.3996 349.447 99.3996 349.447H116.22C118.045 349.447 117.027 351.566 117.027 351.566C120.598 348.717 117.308 345.306 115.088 343.565C114.061 342.756 113.438 341.542 113.429 340.232C113.368 323.331 112.973 213.767 113.438 208.896C113.956 203.62 117.536 200.542 117.536 200.542L111.762 200.472C114.754 197.544 119.29 190.069 119.29 190.069C123.151 181.259 120.975 177.39 118.676 175.71Z" fill="#5E3225"/>
<path d="M76.429 272.137C75.5252 272.137 74.797 271.653 74.797 271.055C74.797 270.457 75.5252 269.974 76.429 269.974C77.3239 269.974 78.0522 270.457 78.0522 271.055C78.0522 271.653 77.3239 272.137 76.429 272.137ZM71.5418 272.137C70.6468 272.137 69.9186 271.653 69.9186 271.055C69.9186 270.457 70.6468 269.974 71.5418 269.974C72.4455 269.974 73.1738 270.457 73.1738 271.055C73.1738 271.653 72.4455 272.137 71.5418 272.137ZM82.9482 266.861L80.9345 264.949C80.3966 264.438 79.6833 264.153 78.9419 264.153H68.9578C68.2699 264.153 67.604 264.398 67.0801 264.845L64.891 266.712C64.891 266.712 64.0838 273.166 73.9547 273.166C83.8256 273.166 82.9482 266.861 82.9482 266.861Z" fill="#5E3225"/>
</g>
<defs>
<clipPath id="clip0_201_81">
<rect width="94.4255" height="188.851" fill="white" transform="translate(26.9787 168.617)"/>
</clipPath>
</defs>
</svg>
