<svg width="149" height="527" viewBox="0 0 149 527" fill="none" xmlns="http://www.w3.org/2000/svg">
<path d="M4.63697 4.63697H143.746V445.531C141.174 460.603 136.106 472.044 125.627 483.416C115.194 494.738 99.2795 506.123 74.6081 520.715C50.5156 506.7 34.8519 495.594 24.3092 484.275C13.7044 472.89 8.12819 461.119 4.63697 445.415V4.63697Z" fill="#063E53" stroke="#799ABF" stroke-width="9.27394"/>
<g clip-path="url(#clip0_201_85)">
<path d="M39.9188 190.251C37.4854 191.15 37.153 192.766 36.9393 194.42C36.8774 194.898 36.9096 195.552 37.4726 195.711C38.3604 195.962 38.2993 195.111 38.4731 194.615C38.9098 193.373 39.3049 192.115 39.9188 190.251ZM61.2007 230.353C61.2007 235.676 61.2304 241 61.1855 246.322C61.1685 248.264 61.7926 248.552 63.3857 247.52C66.9977 245.181 70.6886 242.964 74.2862 240.603C77.4573 238.522 79.2192 235.535 79.2607 231.7C79.3209 226.124 79.3879 220.544 79.2438 214.972C79.1386 210.94 76.3143 208.399 72.2724 207.996C68.6231 207.633 66.1388 209.997 63.2586 211.482C61.7349 212.268 61.1363 213.394 61.1694 215.144C61.266 220.212 61.2033 225.283 61.2007 230.353ZM84.2158 178.589C85.636 177.635 87.1935 177.04 88.869 176.692C92.2139 175.999 95.2264 174.589 98.0965 172.702C100.466 171.143 103.327 170.473 105.754 168.927C107.157 168.034 107.859 169.255 107.575 170.239C106.559 173.747 107.792 177.436 106.306 180.956C105.131 183.738 103.281 185.455 100.788 186.903C95.5334 189.952 90.8412 193.828 85.9573 197.419C85.6529 197.642 85.2477 197.912 85.4511 198.59C86.561 198.481 87.5607 197.982 88.289 197.22C91.5805 193.772 96.1337 192.506 100.309 191.107C103.272 190.114 104.365 187.449 106.951 186.314C108.959 185.432 110.526 183.559 112.823 182.989C113.753 182.758 114.357 181.998 114.913 181.226C115.32 180.662 115.841 180.203 116.627 180.547C117.302 180.843 117.266 181.477 117.283 182.066C117.349 184.417 116.412 186.521 115.58 188.633C115.142 189.746 114.674 190.811 114.814 192.045C115.206 195.504 113.565 197.823 110.717 199.548C103.423 203.965 96.1549 208.424 88.8885 212.888C88.0601 213.396 87.0367 213.742 86.6102 215.035C88.2848 215.456 89.4625 214.529 90.5266 213.769C96.1014 209.788 102.56 207.34 108.171 203.395C110.789 201.554 113.43 199.736 116.017 197.846C117.477 196.78 118.107 196.744 118.594 198.892C119.971 204.973 116.134 214.546 110.382 217.406C104.355 220.405 98.7239 224.203 93.2085 228.112C92.2876 228.765 91.2736 229.324 90.7716 230.473C95.0161 227.9 99.3904 225.624 103.788 223.394C105.251 222.652 107.065 221.093 108.355 222.294C109.613 223.466 108.84 225.61 108.191 227.323C107.363 229.51 106.209 231.54 105.733 233.914C105.387 235.643 103.618 236.66 102.108 237.637C97.3707 240.702 93.1601 244.506 88.2178 247.285C88.3255 247.47 88.4332 247.653 88.5417 247.837C89.6227 247.189 90.7063 246.542 91.7857 245.89C93.0143 245.149 94.181 244.268 95.4825 243.693C96.8425 243.092 98.3314 242.781 99.7635 242.344C99.6541 244.053 99.8779 245.868 99.3751 247.452C97.7184 252.662 94.7406 256.855 89.8169 259.657C85.7657 261.963 85.7691 262.374 87.3139 266.728C95.1688 288.865 103.039 310.996 110.927 333.12C112.588 337.779 112.634 337.767 108.665 340.873C105.866 343.063 103.756 345.721 102.789 349.216C102.116 351.649 102.076 354.011 103.752 356.892C100.551 355.161 99.5066 352.741 98.6154 350.248C95.5444 341.655 92.5022 333.052 89.4633 324.449C83.4688 307.477 77.4564 290.512 71.5314 273.517C70.8446 271.547 70.2011 271.221 68.345 272.316C61.4 276.412 61.3568 276.351 61.333 284.388C61.283 301.723 61.1931 319.057 61.2525 336.392C61.2609 338.816 60.5233 339.996 58.2221 340.8C52.8253 342.686 49.2269 346.589 46.9469 351.784C46.1635 353.569 46.1906 355.392 46.4975 357.252C46.4238 357.325 46.35 357.397 46.2762 357.468C44.2617 356.015 44.0276 353.796 43.9759 351.622C43.8725 347.228 43.9335 342.83 43.9335 338.433C43.9318 295.565 43.9318 252.698 43.931 209.831C43.931 209.239 43.9853 208.64 43.9191 208.056C43.7402 206.462 44.5728 204.478 42.5905 203.514C40.4521 202.475 38.6546 203.585 37.0114 204.853C34.2074 207.017 32.0453 209.663 31.0999 213.166C30.9719 213.639 30.9448 214.193 29.9612 214.415C29.3846 210.521 29.0277 206.656 31.0126 203.129C32.0419 201.298 32.2234 199.526 32.2208 197.572C32.2073 187.959 43.1433 178.824 52.6583 180.531C53.9674 180.765 55.1494 180.611 56.3814 180.248C61.1558 178.838 65.9362 177.446 70.7259 176.088C71.7561 175.796 72.9355 174.938 73.434 176.973C73.7291 178.173 74.8543 177.518 75.5334 177.139C76.935 176.359 78.1975 175.488 79.9924 176.163C80.8683 176.492 81.6687 175.539 82.4929 175.136C83.2187 174.781 84.0453 174.003 84.7661 174.819C85.3392 175.469 84.677 176.24 84.3302 176.907C84.1369 177.279 83.9648 177.662 83.7833 178.04C83.6545 178.249 83.5256 178.458 83.3976 178.667C83.306 178.757 83.2136 178.846 83.122 178.935C83.2916 178.915 83.4603 178.897 83.629 178.878C83.8249 178.782 84.0199 178.685 84.2158 178.589Z" fill="#799ABF"/>
</g>
<defs>
<clipPath id="clip0_201_85">
<rect width="94.4255" height="188.851" fill="white" transform="translate(26.9787 168.617)"/>
</clipPath>
</defs>
</svg>
