<svg width="149" height="527" viewBox="0 0 149 527" fill="none" xmlns="http://www.w3.org/2000/svg">
<path d="M4.63697 4.63697H143.746V445.531C141.174 460.603 136.106 472.044 125.627 483.416C115.194 494.738 99.2795 506.123 74.6081 520.715C50.5156 506.7 34.8519 495.594 24.3092 484.275C13.7044 472.89 8.12819 461.119 4.63697 445.415V4.63697Z" fill="#134731" stroke="#88898D" stroke-width="9.27394"/>
<g clip-path="url(#clip0_201_77)">
<path d="M65.8406 337.649L72.8827 339.49C72.8827 339.49 57.8123 351.947 38.7979 357.468C38.7979 357.468 63.1642 342.603 65.8406 337.649Z" fill="#88898D"/>
<path d="M98.4381 210.995C100.588 211.23 101.282 209.69 102.145 208.438C102.331 208.169 102.312 207.772 101.987 207.534C101.573 207.231 101.182 207.436 100.843 207.682C99.808 208.436 99.0043 209.38 98.4381 210.995ZM88.1593 211.049C88.8092 211.164 89.2503 210.918 89.0382 210.442C88.4551 209.132 87.6371 207.947 86.2444 207.387C85.7381 207.184 85.4195 207.668 85.5159 208.101C85.8548 209.62 86.9787 210.454 88.1593 211.049ZM107.247 257.616C105.943 251.888 109.735 245.834 103.652 241.644C103.033 243.8 103.592 245.853 101.819 247.42C101.211 246.254 101.488 245.075 101.363 243.991C101.112 241.818 100.319 240.037 98.0984 239.321C94.2481 238.082 93.158 235.068 92.967 231.453C92.8605 229.435 92.2884 227.893 91.096 225.982C86.8942 219.25 82.3071 212.381 83.7285 203.656C84.0049 201.96 84.2871 200.248 85.3663 198.919C89.7912 193.463 86.3069 186.375 81.3927 183.279C76.4785 180.185 71.828 180.606 67.5452 184.519C58.9371 192.384 57.4092 205.423 63.7795 215.562C68.4807 223.043 74.7647 228.997 81.5643 234.431C90.4292 241.515 98.8285 249.025 105.054 258.671C114.505 273.313 118.895 289.022 114.828 306.453C107.559 337.606 77.6642 342.687 58.2551 332.651C41.4261 323.949 30.4248 303.825 32.2307 284.91C32.8992 277.911 35.1319 271.496 40.5633 266.678C49.3378 258.893 63.0916 259.908 72.0664 269.042C77.1107 274.175 80.0178 280.536 81.6733 287.465C83.7936 296.34 83.6753 305.212 81.3741 314.075C80.7572 316.45 79.6113 317.596 77.1521 317.282C76.6535 317.218 76.143 317.258 75.6394 317.225C71.7714 316.972 71.8128 316.969 71.6928 313.148C71.3472 302.133 68.3167 291.819 63.4355 282.027C62.1839 279.515 60.4152 277.339 57.9171 275.902C54.4903 273.931 51.0668 274.718 48.9364 278.065C46.2355 282.308 46.1958 287.039 47.6028 291.54C50.7575 301.635 56.2117 310.269 65.3361 316.024C73.3906 321.104 89.0737 321.234 94.947 308.53C97.5541 302.889 98.7093 296.932 98.0586 290.753C96.5738 276.655 89.5909 265.463 79.3409 256.147C73.8529 251.16 68.0767 246.491 62.6124 241.478C54.6365 234.162 47.5226 226.072 44.6594 215.304C40.3765 199.2 44.1549 183.54 58.1267 174.177C66.8792 168.311 76.378 166.329 86.2038 171.964C90.7318 174.561 93.9608 178.428 96.0423 183.201C97.4941 186.528 98.7854 189.932 99.5122 193.516C99.7674 194.772 100.213 195.949 100.974 196.993C104.994 202.501 105.055 208.489 102.807 214.599C101.527 218.079 99.8282 221.404 98.302 224.791C98.0958 225.249 97.8981 225.889 97.5212 226.065C94.3436 227.549 95.531 230.259 95.6578 232.63C95.8183 235.639 97.8102 236.978 100.43 237.793C102.366 238.394 104.13 239.422 105.771 240.618C109.098 243.042 110.221 246.167 109.217 250.173C108.649 252.439 108.024 254.691 107.247 257.616Z" fill="#88898D"/>
</g>
<defs>
<clipPath id="clip0_201_77">
<rect width="94.4255" height="188.851" fill="white" transform="translate(26.9787 168.617)"/>
</clipPath>
</defs>
</svg>
